<?xml version="1.0" standalone="no"?>
<!DOCTYPE svg PUBLIC "-//W3C//DTD SVG 20010904//EN"
 "http://www.w3.org/TR/2001/REC-SVG-20010904/DTD/svg10.dtd">
<svg version="1.0" xmlns="http://www.w3.org/2000/svg"
 width="260.000000pt" height="260.000000pt" viewBox="0 0 260.000000 260.000000"
 preserveAspectRatio="xMidYMid meet">
<metadata>
Created by potrace 1.11, written by Peter Selinger 2001-2013
</metadata>
<g transform="translate(0.000000,260.000000) scale(0.100000,-0.100000)"
fill="#000000" stroke="none">
<path d="M886 1728 c-21 -20 -55 -92 -116 -245 -12 -32 -14 -33 -74 -34 -205
-3 -366 -83 -441 -221 -38 -69 -44 -181 -15 -239 76 -148 282 -172 408 -48 44
43 76 100 124 217 21 53 43 106 48 117 5 11 12 30 15 43 6 20 12 22 87 22 72
0 79 -2 73 -17 -28 -65 -55 -147 -55 -167 0 -12 12 -33 26 -47 23 -21 36 -24
123 -27 111 -4 143 10 144 62 0 38 -16 46 -89 46 l-62 0 27 73 27 72 63 7 c67
7 90 24 91 65 0 26 -27 43 -69 43 -37 0 -38 5 -7 72 55 124 69 166 62 192 -8
32 -49 45 -84 25 -32 -19 -39 -32 -112 -211 l-32 -78 -78 0 -78 0 49 119 c54
131 56 142 33 165 -22 23 -59 20 -88 -6z m-189 -420 c-8 -18 -26 -62 -41 -98
-15 -36 -37 -84 -48 -108 -61 -122 -193 -149 -238 -49 -30 67 -8 139 62 203
61 55 125 78 226 83 l53 2 -14 -33z"/>
<path d="M1430 1427 c-80 -44 -120 -111 -121 -200 -1 -63 22 -107 69 -131 41
-21 247 -22 277 -2 22 14 25 14 33 -1 15 -26 71 -9 119 38 l41 42 21 -41 c30
-60 83 -69 110 -19 11 20 9 32 -13 81 -14 32 -26 60 -26 61 0 2 27 30 60 63
35 34 60 68 60 80 0 24 -25 52 -46 52 -22 0 -71 -27 -86 -47 -7 -10 -21 -24
-30 -32 -16 -12 -20 -10 -32 21 -20 46 -40 62 -71 54 -43 -11 -50 -44 -25
-114 l22 -61 -55 -55 c-47 -46 -58 -52 -68 -40 -9 10 -38 14 -119 14 -83 0
-110 3 -120 15 -11 13 -3 15 59 15 115 0 170 35 173 112 3 97 -130 152 -232
95z m115 -97 c0 -11 -13 -16 -50 -18 l-50 -2 24 20 c28 24 76 24 76 0z"/>
</g>
</svg>
